<svg width="68" height="86" viewBox="0 0 68 86" fill="none" xmlns="http://www.w3.org/2000/svg">
<path d="M38.8182 40.2975C38.8182 40.2975 42.7682 53.8695 39.2672 66.7565C35.7662 79.6425 30.9592 81.9665 32.2132 84.0145C33.4672 86.0615 39.6662 86.4925 41.1592 82.4085C42.6512 78.3235 45.7802 53.8845 41.0272 40.5355C41.0272 40.5355 39.8062 38.7225 38.8182 40.2975Z" fill="#56A06B"/>
<path d="M63.8332 46.7375C61.4622 47.7195 59.9592 48.0185 59.5672 49.1755C59.3942 49.6945 59.4342 50.3545 59.7002 51.3155C60.5852 54.4725 57.9252 62.6325 49.3122 61.2025C40.7252 59.7715 41.1032 41.0525 39.4202 40.2395C38.4852 39.7875 38.0302 41.6055 38.1132 43.9525L38.1082 43.9625C38.1802 45.8555 38.6292 48.0845 39.4822 49.7135C41.4062 53.3725 45.8032 63.5055 35.5272 66.5515C27.6932 68.8675 25.6972 61.8295 25.1802 58.3375C25.0202 57.2355 25.0102 56.4875 25.0102 56.4875C25.0102 56.4875 14.0622 63.5535 9.53016 53.3555C5.00916 43.1625 23.4762 39.4205 25.2722 38.6985C26.4932 38.1865 28.0102 37.3805 28.7052 36.4995L28.7102 36.4895C29.0352 36.0825 29.1792 35.6525 29.0282 35.2205C28.5502 33.8745 20.6682 38.7055 12.3942 39.3605C4.13016 40.0205 -0.239839 36.7825 0.0101605 31.6235C0.264161 26.4535 5.86416 24.1475 9.49016 23.2715C10.0562 23.1345 10.3452 22.7745 10.4562 22.2265C11.0612 19.3275 6.55116 11.4205 13.3622 7.95752C21.4402 3.83652 26.6972 10.8615 27.3832 18.7275C28.0692 26.5945 31.8062 31.1155 32.3502 28.6615C32.6422 27.3925 28.0792 19.4345 27.5932 12.1905C27.4132 9.56552 27.7602 7.04252 29.0632 4.95452C33.9922 -2.91648 42.8252 0.23452 44.6982 3.22852C45.9592 5.23452 46.4652 6.73452 47.8492 7.58252C48.5102 7.99152 49.3862 8.24752 50.6622 8.33852C54.5372 8.62052 59.4282 7.77952 62.3342 12.6945C65.2302 17.6305 61.1362 25.4695 51.8992 28.9915C47.5502 30.6455 45.2002 31.6385 44.0222 32.3255L44.0072 32.3305C42.7012 33.0965 42.8722 33.4865 43.3952 33.9955C44.3842 34.9475 52.8062 28.1225 62.3392 31.9195C71.8682 35.7275 67.2262 45.3395 63.8332 46.7375Z" fill="#56A06B"/>
<path opacity="0.44" d="M32.7112 30.9115C36.6892 29.5245 34.6252 24.6275 32.9282 18.5215C31.2322 12.4155 36.1822 10.4815 38.7342 13.4765C41.2862 16.4715 42.5992 18.0665 47.3742 18.1295C52.1492 18.1935 54.5852 21.7725 50.0562 25.5115C45.5272 29.2505 40.2502 30.2265 39.7162 33.6525C39.1822 37.0795 48.5762 35.2085 53.4092 34.8195C58.2422 34.4305 60.6782 38.0105 56.7092 40.2585C52.7402 42.5065 50.7962 41.8875 50.6072 46.9225C50.4182 51.9575 45.2622 52.3505 44.0902 46.8185C42.9172 41.2865 40.4052 36.8695 37.9642 37.6125C35.5232 38.3555 34.1082 44.8805 36.1952 50.5345C38.2822 56.1885 31.5362 58.2165 30.4532 54.4895C29.3702 50.7625 29.7962 48.8855 26.0062 50.0985C22.2162 51.3115 18.7052 49.2955 20.0762 45.7925C21.4472 42.2895 30.7822 40.8715 30.9802 36.4815C31.1782 32.0915 24.5932 31.7945 19.7192 33.9265C14.8452 36.0575 11.4142 35.2015 10.8552 32.0475C10.2962 28.8945 16.7702 29.0885 17.0202 26.9115C17.2712 24.7345 15.5922 19.9185 18.9382 19.2925C22.2842 18.6665 24.7642 25.4705 27.1922 28.4055C29.6212 31.3415 31.1702 31.4485 32.7112 30.9115Z" fill="#C0DD4A"/>
<g opacity="0.22">
<path d="M34.7862 34.6305L10.4562 22.2255C11.0612 19.3265 6.55117 11.4195 13.3622 7.95651C21.4402 3.83551 26.6972 10.8605 27.3832 18.7265C28.0692 26.5935 31.8062 31.1145 32.3502 28.6605C32.6422 27.3915 28.0792 19.4335 27.5932 12.1895C29.5572 18.7905 33.4382 31.6085 34.7862 34.6305Z" fill="#123F24"/>
<path d="M25.1802 58.3385C25.0202 57.2365 25.0102 56.4885 25.0102 56.4885C25.0102 56.4885 14.0622 63.5545 9.53016 53.3565C5.00916 43.1635 23.4762 39.4215 25.2722 38.6995C26.4932 38.1875 28.0102 37.3815 28.7052 36.5005L28.7102 36.4905L34.7852 34.6315L25.1802 58.3385Z" fill="#123F24"/>
<path d="M49.3122 61.2025C40.7252 59.7715 41.1032 41.0525 39.4202 40.2395C38.4852 39.7875 38.0302 41.6055 38.1132 43.9525L34.7852 34.6305C35.5882 35.1975 50.3172 43.7855 59.5672 49.1755C59.3942 49.6945 59.4342 50.3545 59.7002 51.3155C60.5852 54.4725 57.9252 62.6325 49.3122 61.2025Z" fill="#123F24"/>
<path d="M51.9002 28.9925C47.5512 30.6465 45.2012 31.6395 44.0232 32.3265L44.0082 32.3315L34.7862 34.6305L47.8502 7.58252C48.5112 7.99152 49.3872 8.24752 50.6632 8.33852C54.5382 8.62052 59.4292 7.77952 62.3352 12.6945C65.2312 17.6305 61.1372 25.4695 51.9002 28.9925Z" fill="#123F24"/>
</g>
</svg>
