<svg width="76" height="79" viewBox="0 0 76 79" fill="none" xmlns="http://www.w3.org/2000/svg">
<path d="M56.6168 41.4341C56.6168 41.4341 56.907 41.744 57.3035 42.2957C58.8512 44.4447 61.9804 50.31 55.1137 55.8686C46.5015 62.846 37.7268 43.282 37.7268 43.282C37.7268 43.282 37.6955 43.813 37.5626 44.7025L37.5626 44.7136C37.0975 47.8434 35.4354 55.3898 29.9372 60.0621C22.865 66.06 12.226 56.7091 18.5225 48.5921C18.5225 48.5921 18.2679 48.5589 17.8295 48.4576C15.4717 47.9179 7.97997 45.5294 9.21861 36.9131C10.2364 29.822 16.6079 28.1787 23.0471 30.0199C24.4684 30.4264 25.8921 30.9944 27.2573 31.7248C23.6629 28.8389 19.0855 23.8701 20.4476 18.3799C22.6443 9.57322 31.4501 9.83118 34.6142 13.9195C34.6961 14.023 34.7659 14.138 34.8469 14.2531C34.8469 14.2531 40.5657 5.94391 47.9161 11.4838C53.0634 15.3644 51.5984 21.0854 47.8236 26.4983C47.4919 26.9618 47.148 27.4256 46.793 27.8894C50.3164 24.7863 55.2392 22.0449 59.5418 25.4455C67.2652 31.5598 60.1269 39.8658 56.6168 41.4341Z" fill="#56A06B"/>
<path opacity="0.44" d="M33.2467 34.8425C34.2934 31.7449 25.501 26.2352 27.9782 22.5661C30.4563 18.8966 33.3706 23.3023 35.9631 22.9015C38.5556 22.5007 38.1452 18.2722 42.3885 20.1692C46.6317 22.0662 41.8557 27.2886 39.9525 30.5703C38.0494 33.852 39.9114 36.7256 44.1662 34.1983C48.4214 31.6718 53.6037 29.9091 53.8247 34.5235C54.0456 39.1379 48.2757 39.1739 47.9025 41.099C47.5297 43.0251 52.1677 46.6509 48.9139 49.1706C45.6592 51.6907 40.3952 39.9913 36.9335 40.0121C33.4718 40.0329 34.3159 52.1453 28.7509 54.2951C23.1868 56.4444 25.8249 47.5815 24.0768 44.8993C22.3292 42.2179 17.7136 42.2457 18.8406 37.8154C19.9675 33.3852 31.3583 40.4315 33.2467 34.8425Z" fill="#C0DD4A"/>
<path d="M36.744 40.5907C36.744 40.5907 41.0767 61.2402 31.991 71.875C31.3904 72.5784 31.7767 73.6587 32.6939 73.7823C34.0294 73.9615 35.8287 74.0032 37.5617 73.4081C37.807 73.3245 38.0108 73.1588 38.1507 72.9399C39.1676 71.3483 42.8634 63.7876 38.8534 42.3907C38.6634 41.3722 37.7808 40.6245 36.744 40.5907Z" fill="#56A06B"/>
<g opacity="0.22">
<path d="M36.2459 37.1393L36.1309 37.2091C34.9332 37.5628 28.6085 33.6661 23.0466 30.019C24.468 30.4255 25.8917 30.9935 27.2569 31.7239C23.6624 28.8381 19.0851 23.8692 20.4472 18.3791C22.6439 9.57235 31.4496 9.83031 34.6137 13.9186L36.2459 37.1393Z" fill="#123F24"/>
<path d="M37.5622 44.7015L37.5621 44.7127C37.097 47.8425 35.4349 55.3889 29.9367 60.0612C22.8646 66.0591 12.2255 56.7082 18.5221 48.5912C18.5221 48.5912 18.2674 48.558 17.829 48.4567L36.1313 37.2077L36.2464 37.138L37.5622 44.7015Z" fill="#123F24"/>
<path d="M56.6168 41.4341C56.6168 41.4341 56.907 41.744 57.3035 42.2957L36.2463 37.1402L47.825 26.4987C47.4932 26.9622 47.1493 27.4261 46.7943 27.8899C50.3178 24.7868 55.2405 22.0454 59.5431 25.446C67.2652 31.5598 60.1269 39.8658 56.6168 41.4341Z" fill="#123F24"/>
</g>
</svg>
