<svg width="120" height="74" viewBox="0 0 120 74" fill="none" xmlns="http://www.w3.org/2000/svg">
<path d="M53.02 52.701L56.167 58.864C56.167 58.864 69.436 68.182 92.199 55.783C114.962 43.383 112.032 30.336 112.032 30.336L108.885 24.173L53.02 52.701Z" fill="#C98118"/>
<path d="M91.8315 59.7349C107.258 51.8569 116.304 38.6944 112.035 30.3357C107.767 21.9769 91.8006 21.5872 76.3738 29.4651C60.9469 37.3431 51.9013 50.5056 56.1698 58.8643C60.4384 67.2231 76.4047 67.6128 91.8315 59.7349Z" fill="#C98118"/>
<path d="M96.37 48.849C95.755 49.297 95.129 49.746 94.483 50.173C92.669 51.382 90.74 52.529 88.686 53.572C88.311 53.76 87.935 53.947 87.57 54.125C84.077 55.814 80.574 57.086 77.207 57.93C74.371 58.649 71.629 59.066 69.065 59.191C68.419 59.222 67.793 59.243 67.178 59.233C64.863 59.212 62.726 58.941 60.829 58.42C58.806 57.857 57.055 57.013 55.648 55.876C54.543 55 53.657 53.937 53.021 52.696C50.905 48.557 52.062 43.24 55.648 37.965C57.024 35.922 58.776 33.889 60.829 31.939C62.706 30.167 64.833 28.457 67.178 26.872C67.793 26.455 68.419 26.048 69.065 25.652C70.389 24.828 71.776 24.047 73.225 23.306C74.549 22.628 75.884 22.013 77.208 21.461C80.742 19.981 84.245 18.927 87.571 18.312C89.99 17.864 92.304 17.634 94.483 17.634C95.119 17.634 95.755 17.655 96.37 17.697C102.281 18.062 106.879 20.241 108.881 24.171C112.384 31.021 106.941 41.092 96.37 48.849Z" fill="#F1CD2F"/>
<path opacity="0.29" d="M86.132 48.578C74.174 54.698 62.153 55.344 58.535 50.236C58.358 50.007 58.212 49.767 58.087 49.517C55.095 43.647 62.789 33.722 75.289 27.342C87.779 20.961 100.342 20.544 103.334 26.404C103.469 26.665 103.584 26.936 103.668 27.217C105.638 33.159 98.069 42.479 86.132 48.578Z" fill="#DB2121"/>
<path opacity="0.18" d="M86.132 48.578C74.174 54.698 62.153 55.344 58.535 50.236C56.617 44.293 64.175 34.994 76.081 28.905C88.019 22.806 100.008 22.16 103.667 27.216C105.638 33.159 98.069 42.479 86.132 48.578Z" fill="#FF2222"/>
<path d="M82.034 35.303C82.034 35.303 84.293 28.603 87.073 29.308C89.853 30.013 88.202 32.696 88.202 32.696C88.202 32.696 93.675 33.217 92.198 36.692C90.721 40.167 84.466 37.964 84.466 37.964C84.466 37.964 90.077 39.932 88.691 42.885C87.305 45.838 83.478 44.275 83.478 44.275C83.478 44.275 81.914 47.49 78.613 46.621C75.312 45.752 81.108 38.357 81.108 38.357C81.108 38.357 75.605 45.12 73.379 41.645C71.819 39.21 75.605 36.519 77.343 36.866C77.343 36.866 73.026 35.286 75.632 32.419C78.238 29.552 82.034 35.303 82.034 35.303Z" fill="#F1CD2F"/>
<g opacity="0.2">
<path d="M60.828 31.939V58.42C58.805 57.857 57.054 57.013 55.647 55.876V37.965C57.023 35.921 58.775 33.888 60.828 31.939Z" fill="#FFFFCF"/>
<path d="M69.065 25.652V59.191C68.419 59.222 67.793 59.243 67.178 59.233V26.872C67.793 26.455 68.418 26.048 69.065 25.652Z" fill="#FFFFCF"/>
<path d="M96.37 17.697V48.849C95.755 49.297 95.129 49.746 94.483 50.173V17.635C95.119 17.635 95.755 17.656 96.37 17.697Z" fill="#FFFFCF"/>
<path d="M87.57 18.312V54.124C84.077 55.813 80.574 57.085 77.207 57.929V21.461C80.742 19.98 84.245 18.927 87.57 18.312Z" fill="#FFFFCF"/>
</g>
<path d="M2.741 44.267L2.52899 51.184C2.52899 51.184 9.665 65.743 35.586 65.847C61.507 65.951 65.227 53.107 65.227 53.107L65.439 46.19L2.741 44.267Z" fill="#C98118"/>
<path d="M65.236 53.1226C65.5241 43.7417 51.7226 35.706 34.4094 35.1742C17.0962 34.6424 2.82749 41.816 2.53935 51.1968C2.25122 60.5777 16.0528 68.6134 33.366 69.1452C50.6792 69.677 64.9479 62.5034 65.236 53.1226Z" fill="#C98118"/>
<path d="M42.581 61.781C41.826 61.877 41.062 61.969 40.29 62.032C38.118 62.218 35.875 62.293 33.573 62.217C33.154 62.201 32.734 62.184 32.329 62.164C28.455 61.961 24.772 61.387 21.415 60.504C18.584 59.768 15.98 58.812 13.672 57.686C13.091 57.402 12.532 57.119 11.998 56.813C9.97997 55.679 8.23798 54.412 6.82598 53.041C5.32498 51.573 4.19698 49.989 3.51198 48.315C2.96598 47.015 2.70199 45.656 2.74199 44.263C2.88199 39.616 6.45799 35.515 12.143 32.621C14.334 31.494 16.848 30.556 19.587 29.838C22.086 29.189 24.773 28.716 27.592 28.458C28.332 28.389 29.076 28.334 29.833 28.299C31.39 28.215 32.982 28.198 34.608 28.248C36.095 28.292 37.56 28.396 38.987 28.55C42.797 28.956 46.374 29.721 49.585 30.785C51.92 31.558 54.059 32.472 55.968 33.522C56.525 33.829 57.072 34.153 57.591 34.486C62.595 37.654 65.574 41.779 65.433 46.188C65.204 53.877 55.582 60.079 42.581 61.781Z" fill="#F1CD2F"/>
<path opacity="0.29" d="M33.741 56.61C20.314 56.21 9.46899 50.983 8.76099 44.764C8.71599 44.478 8.704 44.197 8.715 43.918C8.922 37.333 20.447 32.344 34.475 32.777C48.494 33.205 59.703 38.894 59.501 45.47C59.494 45.764 59.464 46.056 59.402 46.343C58.264 52.499 47.14 57.018 33.741 56.61Z" fill="#DB2121"/>
<path opacity="0.18" d="M33.741 56.61C20.314 56.21 9.46899 50.983 8.76099 44.764C9.94399 38.632 21.048 34.126 34.415 34.529C47.814 34.937 58.631 40.149 59.401 46.343C58.264 52.499 47.14 57.018 33.741 56.61Z" fill="#FF2222"/>
<path d="M36.548 43.003C36.548 43.003 41.756 38.221 43.852 40.179C45.948 42.137 43.209 43.692 43.209 43.692C43.209 43.692 47.754 46.786 44.785 49.12C41.816 51.453 37.397 46.508 37.397 46.508C37.397 46.508 41.366 50.936 38.728 52.856C36.09 54.776 33.49 51.562 33.49 51.562C33.49 51.562 30.571 53.625 28.096 51.273C25.622 48.921 34.264 45.234 34.264 45.234C34.264 45.234 26.183 48.508 25.907 44.39C25.714 41.504 30.328 40.971 31.683 42.113C31.683 42.113 28.661 38.648 32.327 37.392C35.993 36.135 36.548 43.003 36.548 43.003Z" fill="#F1CD2F"/>
<g opacity="0.2">
<path d="M19.588 29.837L6.827 53.041C5.326 51.573 4.198 49.989 3.513 48.315L12.144 32.62C14.334 31.493 16.849 30.555 19.588 29.837Z" fill="#FFFFCF"/>
<path d="M29.834 28.297L13.671 57.685C13.09 57.401 12.531 57.118 11.997 56.812L27.592 28.456C28.333 28.387 29.077 28.333 29.834 28.297Z" fill="#FFFFCF"/>
<path d="M57.593 34.485L42.581 61.781C41.826 61.877 41.062 61.969 40.29 62.032L55.97 33.521C56.527 33.827 57.074 34.152 57.593 34.485Z" fill="#FFFFCF"/>
<path d="M49.587 30.784L32.329 62.164C28.455 61.961 24.772 61.387 21.415 60.504L38.989 28.549C42.799 28.954 46.376 29.72 49.587 30.784Z" fill="#FFFFCF"/>
</g>
<path d="M92.33 0.46402L91.287 7.11002L86.074 8.60902L91.222 9.58602L92.786 17.405L93.959 9.32502L99.237 8.08702L93.177 7.04502L92.33 0.46402Z" fill="white"/>
<path d="M54.51 25.312L53.655 30.764L49.379 31.993L53.602 32.795L54.884 39.21L55.847 32.581L60.176 31.566L55.205 30.71L54.51 25.312Z" fill="white"/>
<path d="M104.186 46.771L103.126 53.533L97.822 55.058L103.059 56.052L104.65 64.008L105.844 55.787L111.214 54.527L105.048 53.467L104.186 46.771Z" fill="white"/>
<path d="M60.675 18.276L60.184 21.408L57.727 22.114L60.153 22.575L60.89 26.259L61.443 22.452L63.929 21.869L61.074 21.378L60.675 18.276Z" fill="white"/>
<path d="M13.563 27.093L13.165 29.632L11.174 30.204L13.14 30.578L13.737 33.564L14.185 30.478L16.201 30.005L13.887 29.607L13.563 27.093Z" fill="white"/>
<path d="M3.35901 58.71L2.86801 61.841L0.411011 62.548L2.83701 63.008L3.57401 66.692L4.12601 62.885L6.61301 62.302L3.758 61.811L3.35901 58.71Z" fill="white"/>
</svg>
