<svg width="145" height="111" viewBox="0 0 145 111" fill="none" xmlns="http://www.w3.org/2000/svg">
<path d="M39.052 99.2C39.052 99.2 38.133 109.2 39.741 110.7C41.349 112.2 48.238 104.2 48.238 104.2L39.052 99.2Z" fill="#4A5F66"/>
<path d="M106.041 99.2C106.041 99.2 106.96 109.2 105.352 110.7C103.744 112.2 96.855 104.2 96.855 104.2L106.041 99.2Z" fill="#4A5F66"/>
<path d="M134.691 73.2C134.654 73.43 134.618 73.66 134.581 73.89C133.69 79.35 131.669 83.94 128.858 87.8C128.849 87.81 128.849 87.82 128.84 87.82C123.631 95.03 115.694 99.71 107.298 102.73C94.189 107.45 79.941 108.17 73.042 108.2H72.583C58.785 108.14 15.591 105.34 10.934 73.2C10.879 72.8 10.824 72.41 10.778 72.02C9.832 64.5 10.502 58.12 12.083 52.75C17.126 35.56 31.439 28.77 31.925 28.2C32.568 27.45 31.925 22.2 31.925 22.2L50.987 22.55L72.814 22.95L113.702 22.2C113.702 22.2 113.059 27.45 113.702 28.2C114.198 28.79 129.475 36.02 134.013 54.51C135.316 59.79 135.738 65.98 134.691 73.2Z" fill="#4A5F66"/>
<path opacity="0.46" d="M134.691 73.2C134.654 73.43 134.618 73.66 134.581 73.89C114.941 78.17 70.699 84.35 10.777 72.02C9.83099 64.5 10.501 58.12 12.082 52.75C27.405 56.68 78.021 67.4 134.012 54.51C135.316 59.79 135.738 65.98 134.691 73.2Z" fill="#B5DAE3"/>
<path opacity="0.17" d="M107.246 39.732C106.649 40.341 106.116 41.063 105.888 41.918C105.294 44.154 106.886 46.283 107.984 48.281C111.704 55.048 110.139 63.63 108.587 71.333C108.198 73.261 107.816 75.231 107.999 77.195C108.182 79.159 109.025 81.153 110.584 82.163C111.526 82.774 112.652 82.979 113.748 82.953C117.771 82.858 121.277 79.833 123.687 76.325C130.28 66.726 130.325 52.411 123.792 42.764C120.142 37.374 112.201 34.684 107.246 39.732Z" fill="#D9DBDA"/>
<path opacity="0.23" d="M128.839 87.82C123.63 95.03 115.693 99.71 107.297 102.73C94.188 107.45 79.94 108.17 73.041 108.2H72.582C58.784 108.14 15.59 105.34 10.933 73.2C10.878 72.8 10.823 72.41 10.777 72.02C9.83099 64.5 10.501 58.12 12.082 52.75C17.125 35.56 31.438 28.77 31.924 28.2C32.567 27.45 31.924 22.2 31.924 22.2L50.986 22.55C50.536 27.58 49.241 32.52 47.109 37.02C45.63 40.15 43.765 43.07 42.442 46.29C36.811 60.03 42.506 77.03 53.052 86.77C63.598 96.52 77.874 100.13 91.69 100.86C98.304 101.21 105.047 100.96 111.367 98.81C117.834 96.61 123.576 92.54 128.839 87.82Z" fill="#112D1C"/>
<path d="M17.596 39.459C3.283 35.628 -6.907 60.343 7.741 63.98C21.115 67.3 31.025 43.054 17.596 39.459ZM8.83001 60.094C-1.51199 57.5259 5.682 40.076 15.788 42.781C25.27 45.319 18.273 62.4389 8.83001 60.094Z" fill="#FCAC17"/>
<path d="M137.637 63.979C152.285 60.342 142.095 35.627 127.782 39.458C114.353 43.054 124.263 67.3 137.637 63.979ZM129.59 42.781C139.696 40.076 146.891 57.526 136.548 60.094C127.105 62.439 120.108 45.319 129.59 42.781Z" fill="#FCAC17"/>
<path d="M23.059 36.8C23.041 36.84 23.031 36.89 23.013 36.93C22.296 38.83 19.981 39.23 18.613 37.81C17.024 36.17 14.332 34.15 12.348 36.64C10.18 39.36 12.982 42.11 14.672 43.4C15.875 44.32 16.252 46.16 15.388 47.46C15.37 47.48 15.361 47.49 15.351 47.51C14.919 48.14 14.276 48.5 13.596 48.58C13.072 48.65 12.53 48.56 12.025 48.32C4.262 44.57 4.465 33.23 12.346 30.14C16.691 28.44 19.796 30.52 21.532 32.47C22.092 33.09 22.515 33.7 22.79 34.17C23.243 34.95 23.362 35.93 23.059 36.8Z" fill="#4A5F66"/>
<path d="M133.148 47.57C132.744 47.85 132.303 48.1 131.843 48.32C130.676 48.88 129.289 48.62 128.518 47.51C128.509 47.49 128.5 47.48 128.481 47.46C127.618 46.16 127.994 44.32 129.198 43.4C130.888 42.11 133.69 39.36 131.522 36.64C129.538 34.15 126.846 36.17 125.257 37.81C123.888 39.23 121.573 38.83 120.857 36.93C120.839 36.89 120.829 36.84 120.811 36.8C120.508 35.93 120.627 34.95 121.077 34.17C121.619 33.26 122.712 31.79 124.329 30.75C126.111 29.6 128.518 28.96 131.522 30.14C138.935 33.05 139.551 43.24 133.148 47.57Z" fill="#4A5F66"/>
<path opacity="0.31" d="M21.534 32.47C20.716 32.73 19.596 32.79 18.108 32.57C15.903 32.25 13.46 31.66 11.632 33.03C10.226 34.07 9.629 36.01 9.491 37.86C9.197 41.87 10.805 45.97 13.597 48.58C13.073 48.65 12.531 48.56 12.026 48.32C4.26301 44.57 4.466 33.23 12.347 30.14C16.693 28.44 19.798 30.52 21.534 32.47Z" fill="#112D1C"/>
<path opacity="0.31" d="M133.166 44.2C132.946 44.8 132.716 45.42 132.725 46.07C132.734 46.61 132.899 47.1 133.148 47.57C132.744 47.85 132.303 48.1 131.843 48.32C130.676 48.88 129.289 48.62 128.518 47.51C128.509 47.49 128.5 47.48 128.481 47.46C127.618 46.16 127.994 44.32 129.198 43.4C130.888 42.11 133.69 39.36 131.522 36.64C129.538 34.15 126.846 36.17 125.257 37.81C123.888 39.23 121.573 38.83 120.857 36.93C120.839 36.89 120.829 36.84 120.811 36.8C120.508 35.93 120.627 34.95 121.077 34.17C121.619 33.26 122.712 31.79 124.329 30.75C124.972 32.31 124.935 34.21 127.544 33.65C128.407 33.47 129.179 32.92 130.052 32.75C132.266 32.32 134.278 34.67 134.599 37.1C134.912 39.53 134.03 41.93 133.166 44.2Z" fill="#112D1C"/>
<path d="M116.676 17.075H27.569V20.075H116.676V17.075Z" fill="#3A4C51"/>
<path d="M72.123 28.95C96.7295 28.95 116.677 24.9765 116.677 20.075C116.677 15.1735 96.7295 11.2 72.123 11.2C47.5165 11.2 27.569 15.1735 27.569 20.075C27.569 24.9765 47.5165 28.95 72.123 28.95Z" fill="#3A4C51"/>
<path d="M72.123 25.95C96.7295 25.95 116.677 21.9765 116.677 17.075C116.677 12.1735 96.7295 8.20001 72.123 8.20001C47.5165 8.20001 27.569 12.1735 27.569 17.075C27.569 21.9765 47.5165 25.95 72.123 25.95Z" fill="#4A5F66"/>
<path d="M108.409 15.7C108.409 17.06 104.459 18.3 98.047 19.19C91.47 20.12 82.283 20.7 72.123 20.7C61.77 20.7 52.428 20.1 45.823 19.14C39.631 18.25 35.837 17.03 35.837 15.7C35.837 12.94 52.078 10.7 72.123 10.7C92.168 10.7 108.409 12.94 108.409 15.7Z" fill="#2D3C3F"/>
<path opacity="0.23" d="M98.047 19.19C91.47 20.12 82.283 20.7 72.123 20.7C61.77 20.7 52.428 20.1 45.823 19.14C48.257 17.95 51.013 17.24 54.091 16.49C67.815 13.15 82.284 14.43 95.769 18.44C96.522 18.66 97.284 18.91 98.047 19.19Z" fill="#0E2316"/>
<path d="M86.131 16.075L86.699 18.136C86.699 18.136 89.95 21.728 96.984 19.206C104.018 16.684 103.864 12.528 103.864 12.528L103.296 10.467L86.131 16.075Z" fill="#C98118"/>
<path d="M103.865 12.528C104.636 15.324 101.418 18.846 96.678 20.394C91.938 21.943 87.47 20.932 86.7 18.136C85.929 15.34 89.147 11.818 93.887 10.27C98.626 8.72097 103.094 9.732 103.865 12.528Z" fill="#C98118"/>
<path d="M98.512 17.318C98.316 17.421 98.117 17.523 97.914 17.618C97.342 17.887 96.741 18.13 96.11 18.334C95.995 18.37 95.88 18.407 95.768 18.441C94.7 18.763 93.65 18.956 92.66 19.026C91.826 19.088 91.034 19.062 90.307 18.957C90.124 18.931 89.947 18.902 89.774 18.864C89.124 18.728 88.538 18.526 88.031 18.26C87.491 17.975 87.042 17.619 86.705 17.192C86.439 16.862 86.245 16.488 86.13 16.072C85.747 14.687 86.346 13.125 87.624 11.712C88.116 11.164 88.712 10.639 89.39 10.158C90.008 9.72098 90.694 9.31599 91.434 8.96199C91.628 8.86899 91.825 8.77899 92.027 8.69399C92.442 8.51599 92.871 8.354 93.317 8.209C93.724 8.076 94.131 7.96199 94.531 7.86699C95.6 7.61099 96.639 7.48498 97.605 7.48198C98.308 7.47998 98.97 7.539 99.583 7.661C99.762 7.696 99.939 7.738 100.11 7.786C101.753 8.228 102.933 9.15099 103.294 10.466C103.928 12.758 101.882 15.535 98.512 17.318Z" fill="#F1CD2F"/>
<path opacity="0.29" d="M95.649 16.663C91.974 17.867 88.562 17.394 87.808 15.629C87.77 15.549 87.741 15.467 87.719 15.384C87.179 13.421 89.851 10.814 93.692 9.55998C97.53 8.30498 101.082 8.87997 101.623 10.839C101.648 10.926 101.666 11.016 101.675 11.106C101.923 13.035 99.317 15.464 95.649 16.663Z" fill="#DB2121"/>
<path opacity="0.18" d="M95.649 16.663C91.974 17.867 88.562 17.394 87.808 15.629C87.574 13.704 90.175 11.281 93.834 10.083C97.502 8.88399 100.905 9.35598 101.674 11.107C101.923 13.035 99.317 15.464 95.649 16.663Z" fill="#FF2222"/>
<path d="M95.178 12.372C95.178 12.372 96.157 10.448 96.902 10.819C97.647 11.19 97.046 11.919 97.046 11.919C97.046 11.919 98.558 12.384 97.964 13.365C97.37 14.346 95.725 13.322 95.725 13.322C95.725 13.322 97.201 14.237 96.66 15.063C96.119 15.889 95.124 15.197 95.124 15.197C95.124 15.197 94.519 16.093 93.636 15.643C92.753 15.193 94.761 13.254 94.761 13.254C94.761 13.254 92.867 15.016 92.42 13.828C92.107 12.996 93.309 12.384 93.779 12.587C93.779 12.587 92.647 11.862 93.526 11.131C94.407 10.401 95.178 12.372 95.178 12.372Z" fill="#F1CD2F"/>
<g opacity="0.2">
<path d="M89.391 10.1591L88.032 18.261C87.492 17.976 87.043 17.6201 86.706 17.1931L87.625 11.7131C88.117 11.1641 88.714 10.6401 89.391 10.1591Z" fill="#FFFFCF"/>
<path d="M92.028 8.69507L90.307 18.9571C90.124 18.9311 89.947 18.9021 89.774 18.8641L91.434 8.96307C91.63 8.87007 91.826 8.78007 92.028 8.69507Z" fill="#FFFFCF"/>
<path d="M100.111 7.78601L98.512 17.317C98.316 17.42 98.117 17.522 97.914 17.617L99.584 7.66199C99.762 7.69699 99.94 7.73901 100.111 7.78601Z" fill="#FFFFCF"/>
<path d="M97.606 7.48303L95.768 18.44C94.7 18.762 93.65 18.955 92.66 19.025L94.531 7.86703C95.601 7.61203 96.64 7.48603 97.606 7.48303Z" fill="#FFFFCF"/>
</g>
<path d="M71.713 11.418L72.281 13.479C72.281 13.479 75.532 17.071 82.566 14.549C89.6 12.027 89.446 7.871 89.446 7.871L88.878 5.81L71.713 11.418Z" fill="#C98118"/>
<path d="M89.447 7.871C90.218 10.667 87 14.189 82.26 15.737C77.52 17.286 73.052 16.275 72.282 13.479C71.511 10.683 74.729 7.161 79.469 5.613C84.208 4.064 88.676 5.075 89.447 7.871Z" fill="#C98118"/>
<path d="M84.094 12.66C83.898 12.763 83.699 12.865 83.496 12.96C82.924 13.229 82.323 13.472 81.692 13.676C81.577 13.712 81.462 13.749 81.35 13.783C80.282 14.105 79.232 14.298 78.242 14.368C77.408 14.43 76.616 14.404 75.889 14.299C75.706 14.273 75.529 14.244 75.356 14.206C74.707 14.07 74.12 13.868 73.613 13.603C73.073 13.318 72.624 12.962 72.287 12.535C72.021 12.205 71.827 11.83 71.712 11.415C71.329 10.031 71.928 8.46798 73.206 7.05498C73.698 6.50698 74.294 5.982 74.972 5.501C75.59 5.063 76.276 4.65898 77.017 4.30498C77.211 4.21198 77.408 4.12198 77.61 4.03698C78.024 3.85898 78.454 3.69699 78.9 3.55199C79.307 3.41899 79.714 3.30498 80.114 3.20998C81.183 2.95398 82.222 2.82798 83.188 2.82598C83.891 2.82398 84.553 2.88299 85.166 3.00499C85.345 3.04099 85.522 3.08199 85.693 3.12999C87.336 3.57199 88.516 4.49499 88.877 5.80999C89.51 8.09999 87.464 10.878 84.094 12.66Z" fill="#F1CD2F"/>
<path opacity="0.29" d="M81.231 12.005C77.556 13.209 74.144 12.736 73.39 10.971C73.352 10.891 73.323 10.809 73.301 10.726C72.761 8.76303 75.433 6.15602 79.274 4.90202C83.112 3.64702 86.664 4.22201 87.205 6.18101C87.23 6.26801 87.248 6.35801 87.257 6.44801C87.504 8.37701 84.899 10.806 81.231 12.005Z" fill="#DB2121"/>
<path opacity="0.18" d="M81.231 12.005C77.556 13.209 74.144 12.736 73.39 10.971C73.156 9.04599 75.757 6.62196 79.416 5.42496C83.084 4.22596 86.487 4.69798 87.256 6.44898C87.504 8.37698 84.899 10.806 81.231 12.005Z" fill="#FF2222"/>
<path d="M80.76 7.71501C80.76 7.71501 81.739 5.791 82.484 6.162C83.229 6.533 82.628 7.26201 82.628 7.26201C82.628 7.26201 84.14 7.72702 83.546 8.70802C82.952 9.68902 81.307 8.66502 81.307 8.66502C81.307 8.66502 82.783 9.58002 82.242 10.406C81.701 11.232 80.705 10.54 80.705 10.54C80.705 10.54 80.101 11.436 79.217 10.986C78.334 10.536 80.342 8.597 80.342 8.597C80.342 8.597 78.448 10.359 78.001 9.17101C77.688 8.33901 78.89 7.72701 79.36 7.93001C79.36 7.93001 78.228 7.20502 79.107 6.47402C79.988 5.74402 80.76 7.71501 80.76 7.71501Z" fill="#F1CD2F"/>
<g opacity="0.2">
<path d="M74.973 5.50098L73.614 13.603C73.074 13.318 72.625 12.962 72.288 12.535L73.207 7.05496C73.699 6.50696 74.296 5.98298 74.973 5.50098Z" fill="#FFFFCF"/>
<path d="M77.61 4.03796L75.889 14.3C75.706 14.274 75.529 14.245 75.356 14.207L77.017 4.30597C77.212 4.21197 77.408 4.12296 77.61 4.03796Z" fill="#FFFFCF"/>
<path d="M85.693 3.129L84.094 12.66C83.898 12.763 83.699 12.865 83.496 12.96L85.166 3.005C85.344 3.04 85.522 3.082 85.693 3.129Z" fill="#FFFFCF"/>
<path d="M83.188 2.82599L81.35 13.783C80.282 14.105 79.232 14.298 78.242 14.368L80.113 3.20999C81.183 2.95499 82.222 2.82799 83.188 2.82599Z" fill="#FFFFCF"/>
</g>
<path d="M36.92 15.31L37.488 17.371C37.488 17.371 40.739 20.963 47.773 18.441C54.807 15.919 54.653 11.763 54.653 11.763L54.085 9.70197L36.92 15.31Z" fill="#C98118"/>
<path d="M54.654 11.763C55.425 14.559 52.207 18.081 47.467 19.629C42.727 21.178 38.259 20.167 37.489 17.371C36.718 14.575 39.936 11.053 44.676 9.50497C49.415 7.95597 53.883 8.96696 54.654 11.763Z" fill="#C98118"/>
<path d="M49.301 16.552C49.105 16.655 48.906 16.7569 48.703 16.8519C48.131 17.1209 47.53 17.364 46.899 17.568C46.784 17.604 46.669 17.6409 46.557 17.6749C45.489 17.9969 44.439 18.1899 43.449 18.2609C42.615 18.3229 41.823 18.2969 41.096 18.1919C40.913 18.1659 40.736 18.137 40.563 18.099C39.913 17.963 39.327 17.761 38.82 17.496C38.28 17.211 37.831 16.855 37.494 16.428C37.228 16.098 37.034 15.724 36.919 15.308C36.537 13.923 37.135 12.3609 38.413 10.9469C38.905 10.3989 39.501 9.87496 40.178 9.39296C40.796 8.95596 41.482 8.55095 42.223 8.19695C42.417 8.10395 42.614 8.01394 42.816 7.92894C43.23 7.75094 43.66 7.58896 44.106 7.44396C44.513 7.31096 44.919 7.19695 45.32 7.10195C46.389 6.84595 47.428 6.71997 48.394 6.71697C49.097 6.71497 49.759 6.77395 50.371 6.89595C50.55 6.93195 50.727 6.97295 50.898 7.02095C52.541 7.46295 53.721 8.38595 54.082 9.70095C54.717 11.9919 52.671 14.77 49.301 16.552Z" fill="#F1CD2F"/>
<path opacity="0.29" d="M46.438 15.898C42.763 17.102 39.351 16.629 38.597 14.864C38.559 14.784 38.53 14.7019 38.508 14.6189C37.968 12.6559 40.64 10.049 44.481 8.79497C48.319 7.53997 51.871 8.11496 52.412 10.074C52.437 10.161 52.455 10.251 52.464 10.342C52.711 12.27 50.106 14.698 46.438 15.898Z" fill="#DB2121"/>
<path opacity="0.18" d="M46.438 15.898C42.763 17.102 39.351 16.629 38.597 14.864C38.363 12.939 40.964 10.516 44.623 9.31797C48.291 8.11897 51.694 8.59099 52.463 10.342C52.711 12.27 50.106 14.698 46.438 15.898Z" fill="#FF2222"/>
<path d="M45.967 11.607C45.967 11.607 46.946 9.68297 47.691 10.054C48.436 10.425 47.835 11.154 47.835 11.154C47.835 11.154 49.347 11.619 48.753 12.6C48.159 13.581 46.514 12.557 46.514 12.557C46.514 12.557 47.99 13.472 47.449 14.299C46.908 15.125 45.913 14.433 45.913 14.433C45.913 14.433 45.308 15.329 44.425 14.879C43.542 14.429 45.55 12.49 45.55 12.49C45.55 12.49 43.656 14.252 43.209 13.064C42.895 12.232 44.098 11.62 44.568 11.823C44.568 11.823 43.436 11.098 44.315 10.367C45.195 9.63599 45.967 11.607 45.967 11.607Z" fill="#F1CD2F"/>
<g opacity="0.2">
<path d="M40.18 9.39294L38.821 17.4949C38.281 17.2099 37.832 16.8539 37.495 16.4269L38.414 10.9469C38.906 10.3989 39.502 9.87494 40.18 9.39294Z" fill="#FFFFCF"/>
<path d="M42.817 7.92993L41.096 18.1919C40.913 18.1659 40.736 18.1369 40.563 18.0989L42.223 8.19794C42.419 8.10494 42.615 8.01493 42.817 7.92993Z" fill="#FFFFCF"/>
<path d="M50.9 7.02097L49.302 16.552C49.106 16.655 48.907 16.757 48.704 16.852L50.374 6.89697C50.551 6.93197 50.729 6.97397 50.9 7.02097Z" fill="#FFFFCF"/>
<path d="M48.395 6.71796L46.557 17.675C45.489 17.997 44.439 18.19 43.449 18.261L45.32 7.10297C46.39 6.84697 47.429 6.71996 48.395 6.71796Z" fill="#FFFFCF"/>
</g>
<path d="M51.011 3.94397L50.031 5.86996C50.031 5.86996 49.939 11.028 56.661 14.829C63.384 18.631 66.068 15.539 66.068 15.539L67.048 13.613L51.011 3.94397Z" fill="#C98118"/>
<path d="M66.068 15.54C64.739 18.152 60.072 18.105 55.643 15.435C51.214 12.765 48.702 8.48304 50.031 5.87104C51.36 3.25904 56.027 3.30605 60.456 5.97605C64.885 8.64605 67.397 12.928 66.068 15.54Z" fill="#C98118"/>
<path d="M59.023 14.698C58.814 14.615 58.603 14.53 58.394 14.435C57.805 14.171 57.212 13.866 56.624 13.51C56.517 13.444 56.41 13.379 56.308 13.314C55.328 12.693 54.448 11.994 53.693 11.256C53.056 10.636 52.507 9.986 52.058 9.332C51.945 9.167 51.838 9.00601 51.74 8.84101C51.367 8.22701 51.084 7.614 50.9 7.021C50.706 6.387 50.625 5.775 50.67 5.202C50.702 4.755 50.815 4.332 51.012 3.944C51.67 2.65 53.147 2.01001 55.012 2.01901C55.732 2.01901 56.511 2.12 57.319 2.315C58.055 2.495 58.817 2.752 59.584 3.09C59.786 3.178 59.986 3.271 60.188 3.371C60.604 3.574 61.02 3.801 61.436 4.052C61.817 4.281 62.183 4.524 62.534 4.775C63.47 5.444 64.297 6.18101 64.989 6.95001C65.493 7.50901 65.926 8.07902 66.282 8.65302C66.386 8.82102 66.485 8.99199 66.575 9.16199C67.452 10.787 67.674 12.387 67.049 13.614C65.959 15.754 62.63 16.109 59.023 14.698Z" fill="#F1CD2F"/>
<path opacity="0.29" d="M57.417 11.948C53.981 9.88 51.861 6.824 52.509 4.961C52.536 4.873 52.57 4.792 52.61 4.715C53.544 2.882 57.206 3.14801 60.794 5.31201C64.38 7.47301 66.533 10.714 65.601 12.545C65.56 12.627 65.513 12.706 65.458 12.778C64.34 14.354 60.845 14.014 57.417 11.948Z" fill="#DB2121"/>
<path opacity="0.18" d="M57.417 11.948C53.981 9.88002 51.861 6.82402 52.509 4.96102C53.636 3.39802 57.125 3.74004 60.545 5.79904C63.973 7.86504 66.087 10.913 65.459 12.778C64.34 14.354 60.845 14.014 57.417 11.948Z" fill="#FF2222"/>
<path d="M59.966 8.50799C59.966 8.50799 61.959 7.913 62.242 8.772C62.525 9.631 61.605 9.67199 61.605 9.67199C61.605 9.67199 62.372 11.209 61.289 11.437C60.205 11.665 59.718 9.62298 59.718 9.62298C59.718 9.62298 60.157 11.453 59.215 11.613C58.273 11.772 58.027 10.485 58.027 10.485C58.027 10.485 56.992 10.644 56.664 9.61801C56.336 8.59201 59.075 8.807 59.075 8.807C59.075 8.807 56.537 8.55699 57.016 7.35199C57.352 6.50699 58.622 7.02801 58.821 7.54901C58.821 7.54901 58.499 6.129 59.62 6.307C60.74 6.484 59.966 8.50799 59.966 8.50799Z" fill="#F1CD2F"/>
<g opacity="0.2">
<path d="M57.318 2.314L50.899 7.021C50.705 6.387 50.624 5.775 50.669 5.202L55.011 2.01801C55.732 2.01801 56.511 2.119 57.318 2.314Z" fill="#FFFFCF"/>
<path d="M60.187 3.37L52.057 9.332C51.944 9.167 51.837 9.006 51.739 8.841L59.583 3.08899C59.785 3.17699 59.986 3.27 60.187 3.37Z" fill="#FFFFCF"/>
<path d="M66.574 9.16101L59.023 14.698C58.814 14.615 58.603 14.53 58.394 14.435L66.281 8.651C66.385 8.819 66.484 8.99101 66.574 9.16101Z" fill="#FFFFCF"/>
<path d="M64.988 6.948L56.307 13.314C55.327 12.693 54.447 11.994 53.692 11.256L62.532 4.77399C63.469 5.44299 64.296 6.18 64.988 6.948Z" fill="#FFFFCF"/>
</g>
<path d="M43.057 13.761L42.996 15.912C42.996 15.912 45.035 20.44 52.441 20.472C59.847 20.504 60.91 16.51 60.91 16.51L60.971 14.359L43.057 13.761Z" fill="#C98118"/>
<path d="M60.909 16.511C60.827 19.429 56.75 21.66 51.804 21.495C46.857 21.33 42.914 18.831 42.996 15.913C43.078 12.995 47.155 10.764 52.101 10.929C57.048 11.094 60.992 13.593 60.909 16.511Z" fill="#C98118"/>
<path d="M54.439 19.208C54.223 19.238 54.005 19.266 53.784 19.286C53.163 19.344 52.523 19.367 51.865 19.343C51.745 19.338 51.625 19.333 51.51 19.326C50.403 19.263 49.351 19.084 48.392 18.81C47.583 18.581 46.839 18.284 46.18 17.933C46.014 17.845 45.854 17.757 45.702 17.662C45.125 17.309 44.628 16.915 44.224 16.489C43.795 16.032 43.473 15.54 43.277 15.019C43.121 14.615 43.045 14.192 43.057 13.759C43.097 12.314 44.119 11.038 45.743 10.138C46.369 9.787 47.087 9.496 47.87 9.272C48.584 9.07 49.352 8.92298 50.157 8.84298C50.368 8.82198 50.581 8.805 50.797 8.793C51.242 8.767 51.697 8.762 52.161 8.777C52.586 8.791 53.005 8.823 53.412 8.871C54.501 8.997 55.523 9.23501 56.44 9.56601C57.107 9.80601 57.718 10.091 58.264 10.417C58.423 10.512 58.58 10.613 58.728 10.717C60.158 11.702 61.009 12.985 60.969 14.356C60.903 16.75 58.154 18.679 54.439 19.208Z" fill="#F1CD2F"/>
<path opacity="0.29" d="M51.914 17.6C48.078 17.476 44.979 15.85 44.777 13.916C44.764 13.827 44.761 13.74 44.764 13.653C44.823 11.605 48.116 10.053 52.124 10.188C56.129 10.321 59.332 12.09 59.274 14.136C59.272 14.227 59.263 14.318 59.246 14.408C58.92 16.322 55.742 17.727 51.914 17.6Z" fill="#DB2121"/>
<path opacity="0.18" d="M51.914 17.6C48.078 17.476 44.979 15.8499 44.777 13.9159C45.115 12.0089 48.288 10.607 52.106 10.733C55.934 10.86 59.025 12.481 59.245 14.407C58.92 16.322 55.742 17.727 51.914 17.6Z" fill="#FF2222"/>
<path d="M52.716 13.368C52.716 13.368 54.204 11.881 54.803 12.49C55.402 13.099 54.619 13.583 54.619 13.583C54.619 13.583 55.917 14.545 55.069 15.271C54.221 15.997 52.958 14.459 52.958 14.459C52.958 14.459 54.092 15.836 53.338 16.433C52.584 17.03 51.842 16.031 51.842 16.031C51.842 16.031 51.008 16.673 50.301 15.941C49.594 15.209 52.063 14.063 52.063 14.063C52.063 14.063 49.754 15.081 49.675 13.8C49.62 12.903 50.938 12.737 51.325 13.092C51.325 13.092 50.462 12.014 51.509 11.624C52.557 11.232 52.716 13.368 52.716 13.368Z" fill="#F1CD2F"/>
<g opacity="0.2">
<path d="M47.87 9.27301L44.224 16.49C43.795 16.033 43.473 15.541 43.277 15.02L45.743 10.139C46.369 9.78801 47.087 9.49701 47.87 9.27301Z" fill="#FFFFCF"/>
<path d="M50.797 8.79401L46.179 17.934C46.013 17.846 45.853 17.758 45.701 17.663L50.156 8.84399C50.368 8.82299 50.581 8.80601 50.797 8.79401Z" fill="#FFFFCF"/>
<path d="M58.728 10.719L54.439 19.209C54.223 19.239 54.005 19.267 53.784 19.287L58.264 10.42C58.424 10.514 58.58 10.615 58.728 10.719Z" fill="#FFFFCF"/>
<path d="M56.441 9.56802L51.51 19.328C50.403 19.265 49.351 19.086 48.392 18.812L53.413 8.87402C54.501 8.99902 55.523 9.23702 56.441 9.56802Z" fill="#FFFFCF"/>
</g>
<path d="M56.036 16.625L56.604 18.686C56.604 18.686 59.855 22.278 66.889 19.756C73.923 17.234 73.769 13.078 73.769 13.078L73.201 11.017L56.036 16.625Z" fill="#C98118"/>
<path d="M73.77 13.079C74.541 15.875 71.323 19.397 66.583 20.945C61.843 22.494 57.375 21.483 56.605 18.687C55.834 15.891 59.052 12.369 63.792 10.821C68.532 9.27201 72.999 10.283 73.77 13.079Z" fill="#C98118"/>
<path d="M68.418 17.868C68.222 17.971 68.023 18.073 67.82 18.168C67.248 18.437 66.647 18.68 66.016 18.884C65.901 18.92 65.786 18.957 65.674 18.991C64.606 19.313 63.556 19.506 62.566 19.576C61.732 19.638 60.94 19.612 60.213 19.507C60.03 19.481 59.853 19.452 59.68 19.414C59.031 19.278 58.444 19.076 57.937 18.811C57.397 18.526 56.948 18.17 56.611 17.743C56.345 17.413 56.151 17.039 56.036 16.623C55.654 15.238 56.252 13.676 57.53 12.262C58.022 11.714 58.618 11.19 59.296 10.708C59.914 10.271 60.6 9.86601 61.341 9.51201C61.535 9.41901 61.732 9.32901 61.934 9.24401C62.348 9.06601 62.778 8.90402 63.224 8.75902C63.631 8.62602 64.038 8.51201 64.438 8.41701C65.507 8.16201 66.546 8.03501 67.512 8.03301C68.215 8.03101 68.877 8.09002 69.49 8.21202C69.669 8.24802 69.846 8.28902 70.017 8.33702C71.66 8.77902 72.84 9.70202 73.201 11.017C73.834 13.308 71.787 16.086 68.418 17.868Z" fill="#F1CD2F"/>
<path opacity="0.29" d="M65.554 17.214C61.879 18.418 58.467 17.945 57.713 16.18C57.675 16.1 57.646 16.018 57.624 15.935C57.084 13.972 59.756 11.365 63.597 10.111C67.435 8.85704 70.987 9.43107 71.528 11.3901C71.553 11.4771 71.571 11.567 71.58 11.658C71.828 13.585 69.222 16.014 65.554 17.214Z" fill="#DB2121"/>
<path opacity="0.18" d="M65.554 17.214C61.879 18.418 58.467 17.945 57.713 16.18C57.479 14.255 60.08 11.832 63.739 10.634C67.407 9.43502 70.81 9.90701 71.579 11.658C71.828 13.585 69.222 16.014 65.554 17.214Z" fill="#FF2222"/>
<path d="M65.084 12.923C65.084 12.923 66.063 10.999 66.808 11.37C67.553 11.741 66.952 12.47 66.952 12.47C66.952 12.47 68.464 12.935 67.87 13.916C67.276 14.897 65.631 13.873 65.631 13.873C65.631 13.873 67.107 14.788 66.566 15.615C66.025 16.441 65.03 15.749 65.03 15.749C65.03 15.749 64.426 16.645 63.542 16.195C62.659 15.745 64.667 13.806 64.667 13.806C64.667 13.806 62.773 15.568 62.326 14.38C62.013 13.548 63.215 12.936 63.685 13.139C63.685 13.139 62.553 12.414 63.432 11.683C64.312 10.952 65.084 12.923 65.084 12.923Z" fill="#F1CD2F"/>
<g opacity="0.2">
<path d="M59.296 10.7091L57.937 18.8111C57.397 18.5261 56.948 18.1701 56.611 17.7431L57.53 12.2631C58.022 11.7151 58.619 11.1911 59.296 10.7091Z" fill="#FFFFCF"/>
<path d="M61.934 9.24609L60.213 19.5081C60.03 19.4821 59.853 19.4531 59.68 19.4151L61.341 9.5141C61.535 9.4201 61.732 9.33109 61.934 9.24609Z" fill="#FFFFCF"/>
<path d="M70.016 8.33707L68.418 17.8681C68.222 17.9711 68.023 18.0731 67.82 18.1681L69.49 8.21307C69.668 8.24807 69.846 8.29007 70.016 8.33707Z" fill="#FFFFCF"/>
<path d="M67.512 8.03406L65.674 18.9911C64.606 19.3131 63.556 19.5061 62.566 19.576L64.437 8.41806C65.507 8.16306 66.545 8.03606 67.512 8.03406Z" fill="#FFFFCF"/>
</g>
<path d="M60.092 8.642L60.66 10.703C60.66 10.703 63.911 14.295 70.945 11.773C77.979 9.25101 77.825 5.095 77.825 5.095L77.257 3.034L60.092 8.642Z" fill="#C98118"/>
<path d="M77.826 5.09597C78.597 7.89197 75.379 11.414 70.639 12.962C65.899 14.511 61.432 13.5 60.661 10.704C59.89 7.90797 63.108 4.38598 67.848 2.83798C72.588 1.28898 77.055 2.29997 77.826 5.09597Z" fill="#C98118"/>
<path d="M72.474 9.885C72.278 9.988 72.079 10.09 71.876 10.185C71.304 10.454 70.703 10.697 70.072 10.901C69.957 10.937 69.842 10.974 69.73 11.008C68.662 11.33 67.612 11.523 66.622 11.594C65.788 11.656 64.996 11.63 64.269 11.525C64.086 11.499 63.909 11.47 63.736 11.432C63.087 11.296 62.5 11.094 61.993 10.828C61.453 10.543 61.005 10.187 60.667 9.76C60.401 9.43 60.207 9.056 60.092 8.64C59.709 7.255 60.308 5.69298 61.586 4.27898C62.078 3.73098 62.674 3.20599 63.352 2.72499C63.97 2.28799 64.656 1.88298 65.396 1.52898C65.59 1.43598 65.787 1.34597 65.989 1.26097C66.403 1.08297 66.833 0.920989 67.279 0.775989C67.686 0.642989 68.093 0.528979 68.493 0.433979C69.562 0.177979 70.601 0.0519759 71.567 0.0499759C72.27 0.0479759 72.932 0.106992 73.544 0.228992C73.723 0.264992 73.901 0.305992 74.071 0.353992C75.714 0.795992 76.894 1.71898 77.255 3.03398C77.889 5.32498 75.843 8.102 72.474 9.885Z" fill="#F1CD2F"/>
<path opacity="0.29" d="M69.61 9.22999C65.935 10.434 62.523 9.961 61.769 8.196C61.731 8.116 61.702 8.03397 61.68 7.95097C61.14 5.98797 63.812 3.381 67.653 2.127C71.491 0.871998 75.043 1.44699 75.583 3.40599C75.608 3.49299 75.626 3.58299 75.635 3.67399C75.884 5.60199 73.278 8.03099 69.61 9.22999Z" fill="#DB2121"/>
<path opacity="0.18" d="M69.61 9.23002C65.935 10.434 62.523 9.96102 61.769 8.19602C61.535 6.27102 64.136 3.848 67.795 2.65C71.463 1.451 74.866 1.92302 75.635 3.67402C75.884 5.60202 73.278 8.03102 69.61 9.23002Z" fill="#FF2222"/>
<path d="M69.14 4.93999C69.14 4.93999 70.119 3.01598 70.864 3.38698C71.609 3.75798 71.008 4.48699 71.008 4.48699C71.008 4.48699 72.52 4.952 71.926 5.933C71.333 6.914 69.688 5.89 69.688 5.89C69.688 5.89 71.164 6.80497 70.623 7.63197C70.082 8.45797 69.087 7.76598 69.087 7.76598C69.087 7.76598 68.483 8.66199 67.599 8.21199C66.716 7.76199 68.724 5.82298 68.724 5.82298C68.724 5.82298 66.83 7.58499 66.383 6.39699C66.07 5.56499 67.272 4.95299 67.742 5.15599C67.742 5.15599 66.61 4.431 67.489 3.7C68.368 2.968 69.14 4.93999 69.14 4.93999Z" fill="#F1CD2F"/>
<g opacity="0.2">
<path d="M63.352 2.72607L61.993 10.8281C61.453 10.5431 61.005 10.1871 60.667 9.76007L61.586 4.28006C62.078 3.73206 62.675 3.20807 63.352 2.72607Z" fill="#FFFFCF"/>
<path d="M65.99 1.26306L64.269 11.5251C64.086 11.4991 63.909 11.4701 63.736 11.4321L65.396 1.53107C65.591 1.43707 65.788 1.34806 65.99 1.26306Z" fill="#FFFFCF"/>
<path d="M74.072 0.354034L72.474 9.88504C72.278 9.98804 72.079 10.09 71.876 10.185L73.545 0.230042C73.724 0.265042 73.901 0.307034 74.072 0.354034Z" fill="#FFFFCF"/>
<path d="M71.567 0.0510254L69.729 11.008C68.661 11.33 67.611 11.523 66.621 11.594L68.492 0.436035C69.563 0.180035 70.601 0.0530254 71.567 0.0510254Z" fill="#FFFFCF"/>
</g>
<path d="M80.323 18.823L80.904 20.932C80.904 20.932 84.23 24.607 91.425 22.026C98.62 19.446 98.463 15.195 98.463 15.195L97.882 13.086L80.323 18.823Z" fill="#C98118"/>
<path d="M98.464 15.195C99.252 18.055 95.961 21.657 91.112 23.242C86.263 24.826 81.693 23.792 80.905 20.932C80.117 18.072 83.408 14.469 88.257 12.885C93.105 11.301 97.675 12.335 98.464 15.195Z" fill="#C98118"/>
<path d="M92.989 20.094C92.789 20.199 92.585 20.304 92.377 20.4C91.792 20.675 91.177 20.924 90.532 21.133C90.414 21.17 90.296 21.207 90.182 21.242C89.089 21.571 88.015 21.769 87.003 21.841C86.15 21.904 85.34 21.878 84.596 21.771C84.409 21.744 84.228 21.715 84.051 21.676C83.387 21.537 82.786 21.33 82.268 21.059C81.716 20.767 81.257 20.403 80.912 19.967C80.64 19.63 80.441 19.246 80.323 18.822C79.932 17.406 80.544 15.808 81.852 14.362C82.355 13.801 82.965 13.265 83.658 12.772C84.29 12.324 84.992 11.911 85.749 11.549C85.948 11.454 86.149 11.362 86.356 11.275C86.78 11.093 87.22 10.927 87.675 10.779C88.091 10.643 88.507 10.526 88.917 10.429C90.011 10.168 91.073 10.038 92.062 10.036C92.781 10.034 93.458 10.094 94.085 10.219C94.268 10.255 94.45 10.298 94.624 10.346C96.304 10.798 97.512 11.743 97.881 13.087C98.529 15.43 96.435 18.271 92.989 20.094Z" fill="#F1CD2F"/>
<path opacity="0.29" d="M90.059 19.424C86.3 20.656 82.81 20.171 82.038 18.366C81.999 18.284 81.97 18.2009 81.947 18.1149C81.395 16.1069 84.128 13.4399 88.057 12.1579C91.983 10.8749 95.617 11.462 96.169 13.467C96.194 13.556 96.213 13.648 96.222 13.741C96.477 15.713 93.812 18.198 90.059 19.424Z" fill="#DB2121"/>
<path opacity="0.18" d="M90.059 19.424C86.3 20.656 82.81 20.171 82.038 18.366C81.798 16.397 84.46 13.918 88.202 12.692C91.954 11.465 95.435 11.948 96.222 13.74C96.477 15.713 93.812 18.198 90.059 19.424Z" fill="#FF2222"/>
<path d="M89.578 15.035C89.578 15.035 90.579 13.067 91.341 13.447C92.103 13.827 91.488 14.572 91.488 14.572C91.488 14.572 93.034 15.048 92.427 16.051C91.82 17.054 90.137 16.007 90.137 16.007C90.137 16.007 91.647 16.943 91.093 17.788C90.539 18.633 89.521 17.925 89.521 17.925C89.521 17.925 88.903 18.842 87.999 18.381C87.095 17.921 89.15 15.937 89.15 15.937C89.15 15.937 87.213 17.739 86.755 16.524C86.434 15.673 87.664 15.047 88.145 15.255C88.145 15.255 86.987 14.5141 87.887 13.7651C88.789 13.0191 89.578 15.035 89.578 15.035Z" fill="#F1CD2F"/>
<g opacity="0.2">
<path d="M83.658 12.771L82.268 21.059C81.716 20.767 81.257 20.403 80.912 19.967L81.852 14.361C82.355 13.8 82.965 13.264 83.658 12.771Z" fill="#FFFFCF"/>
<path d="M86.356 11.274L84.596 21.771C84.409 21.744 84.228 21.715 84.051 21.676L85.75 11.548C85.948 11.453 86.149 11.361 86.356 11.274Z" fill="#FFFFCF"/>
<path d="M94.624 10.344L92.989 20.094C92.789 20.199 92.585 20.304 92.377 20.4L94.085 10.216C94.267 10.253 94.449 10.296 94.624 10.344Z" fill="#FFFFCF"/>
<path d="M92.062 10.034L90.182 21.242C89.089 21.571 88.015 21.769 87.003 21.841L88.917 10.427C90.011 10.166 91.073 10.037 92.062 10.034Z" fill="#FFFFCF"/>
</g>
<path d="M70.853 7.5L69.73 9.272C69.73 9.272 69.187 14.28 75.393 18.679C81.599 23.078 84.482 20.349 84.482 20.349L85.605 18.577L70.853 7.5Z" fill="#C98118"/>
<path d="M84.483 20.349C82.96 22.752 78.424 22.2201 74.35 19.1611C70.276 16.1021 68.208 11.674 69.731 9.27205C71.254 6.86905 75.79 7.40104 79.864 10.46C83.937 13.519 86.006 17.946 84.483 20.349Z" fill="#C98118"/>
<path d="M77.703 18.796C77.507 18.694 77.309 18.589 77.114 18.475C76.564 18.157 76.014 17.799 75.473 17.39C75.375 17.315 75.277 17.24 75.183 17.166C74.285 16.459 73.489 15.688 72.82 14.891C72.254 14.221 71.778 13.532 71.398 12.849C71.302 12.677 71.212 12.508 71.132 12.339C70.823 11.702 70.601 11.077 70.475 10.481C70.342 9.84398 70.317 9.24001 70.412 8.68701C70.482 8.25501 70.629 7.85598 70.855 7.49798C71.609 6.30698 73.103 5.83898 74.916 6.04098C75.617 6.11598 76.365 6.29499 77.134 6.56899C77.834 6.82099 78.553 7.14998 79.269 7.55898C79.457 7.66598 79.644 7.77698 79.832 7.89498C80.219 8.13598 80.603 8.40001 80.986 8.68701C81.336 8.94901 81.672 9.22399 81.99 9.50399C82.842 10.253 83.582 11.056 84.188 11.876C84.629 12.472 85.001 13.071 85.296 13.668C85.382 13.842 85.463 14.019 85.536 14.194C86.246 15.866 86.322 17.446 85.605 18.575C84.358 20.546 81.088 20.544 77.703 18.796Z" fill="#F1CD2F"/>
<path opacity="0.29" d="M76.382 15.954C73.221 13.585 71.427 10.39 72.221 8.64498C72.255 8.56298 72.295 8.48698 72.341 8.41598C73.411 6.72998 76.95 7.37 80.251 9.85C83.55 12.326 85.359 15.703 84.292 17.388C84.245 17.464 84.192 17.535 84.133 17.599C82.906 19.016 79.535 18.32 76.382 15.954Z" fill="#DB2121"/>
<path opacity="0.18" d="M76.382 15.954C73.221 13.585 71.427 10.39 72.221 8.64496C73.455 7.24196 76.819 7.93797 79.965 10.297C83.118 12.664 84.907 15.85 84.132 17.598C82.906 19.016 79.535 18.32 76.382 15.954Z" fill="#FF2222"/>
<path d="M79.164 12.872C79.164 12.872 81.155 12.501 81.355 13.366C81.555 14.231 80.656 14.176 80.656 14.176C80.656 14.176 81.268 15.7509 80.193 15.86C79.119 15.969 78.824 13.931 78.824 13.931C78.824 13.931 79.091 15.758 78.16 15.814C77.229 15.871 77.103 14.593 77.103 14.593C77.103 14.593 76.082 14.64 75.853 13.608C75.624 12.576 78.269 13.07 78.269 13.07C78.269 13.07 75.822 12.563 76.394 11.44C76.795 10.653 77.985 11.292 78.133 11.819C78.133 11.819 77.945 10.404 79.019 10.694C80.095 10.983 79.164 12.872 79.164 12.872Z" fill="#F1CD2F"/>
<g opacity="0.2">
<path d="M77.133 6.57098L70.475 10.482C70.342 9.84496 70.317 9.24096 70.412 8.68796L74.916 6.04297C75.615 6.11697 76.364 6.29698 77.133 6.57098Z" fill="#FFFFCF"/>
<path d="M79.831 7.89697L71.398 12.85C71.302 12.678 71.212 12.509 71.132 12.34L79.269 7.56097C79.457 7.66697 79.644 7.77797 79.831 7.89697Z" fill="#FFFFCF"/>
<path d="M85.536 14.195L77.703 18.796C77.507 18.694 77.309 18.589 77.114 18.475L85.296 13.67C85.382 13.844 85.463 14.021 85.536 14.195Z" fill="#FFFFCF"/>
<path d="M84.187 11.878L75.182 17.167C74.284 16.46 73.488 15.689 72.819 14.892L81.989 9.50598C82.841 10.255 83.581 11.058 84.187 11.878Z" fill="#FFFFCF"/>
</g>
</svg>
