<svg width="129" height="75" viewBox="0 0 129 75" fill="none" xmlns="http://www.w3.org/2000/svg">
<path d="M128.15 46.576L124.61 47.215L121.718 47.739L117.246 48.555L113.617 49.22L109.846 50.107L105.969 51.012C105.969 51.012 102.642 23.729 74.25 29.9401C45.858 36.1511 53.622 74.968 53.622 74.968L45.167 74.276L37.723 73.664L28.15 73.2381L19.118 72.7941L10.192 72.457L0.610004 72.0841C0.610004 72.0841 -0.498989 17.5181 52.514 3.54405C105.526 -10.4299 124.602 29.496 128.15 46.576Z" fill="#D94448"/>
<path d="M124.61 47.2141L121.718 47.7381L117.246 48.5541L113.617 49.2191L105.969 51.0111C105.969 51.0111 102.642 23.7281 74.25 29.9391C45.858 36.1501 53.622 74.9671 53.622 74.9671L37.723 73.6631L28.15 73.2371L19.118 72.7931L10.192 72.4561C11.204 59.0141 15.01 20.0201 55.477 8.51205C100.85 -4.37894 119.429 28.6181 124.61 47.2141Z" fill="#F8C341"/>
<path d="M121.718 47.738L117.246 48.554L113.617 49.219L105.969 51.011C105.969 51.011 102.642 23.728 74.25 29.939C45.858 36.15 53.622 74.9671 53.622 74.9671L37.723 73.663L28.15 73.237L19.118 72.793C20.236 59.635 21.372 24.394 58.237 13.853C98.587 2.32004 116.102 30.135 121.718 47.738Z" fill="#35B64F"/>
<path d="M117.246 48.554L113.617 49.219L105.969 51.011C105.969 51.011 102.642 23.728 74.25 29.939C45.858 36.15 53.622 74.967 53.622 74.967L37.723 73.663L28.15 73.237C28.86 55.173 31.593 28.609 61.377 19.63C94.586 9.62204 110.565 30.818 117.246 48.554Z" fill="#4BD08E"/>
<path d="M113.617 49.2201L105.969 51.0121C105.969 51.0121 102.642 23.7291 74.25 29.9401C45.858 36.1511 53.622 74.9681 53.622 74.9681L37.723 73.6641C38.388 49.8771 43.685 31.1921 65.671 24.0671C92.075 15.5041 107.726 32.3441 113.617 49.2201Z" fill="#4C51AC"/>
<path d="M109.847 50.107L105.97 51.012C105.97 51.012 102.643 23.729 74.251 29.94C45.859 36.151 53.623 74.968 53.623 74.968L45.168 74.276C45.168 74.276 39.277 26.906 80.684 25.726C97.168 25.255 105.632 36.452 109.847 50.107Z" fill="#934599"/>
</svg>
